# xmcd
#
# Track frame offsets: 
#        150
#        12859
#        24559
#        38044
#        50989
#        63993
#        75950
#        89227
#        101426
#        114497
#        126952
#        139870
#        152008
#        163897
#        175691
#        188357
#        202640
#        216691
#        228365
#        240894
#        252998
#        265963
#        278863
#        291513
#
# Disc length: 4062 seconds
#
# Revision: 4
# Processed by: cddbd v1.5.2PL0 Copyright (c) Steve Scherf et al.
# Submitted via: ExactAudioCopy v0.99pb4
#
DISCID=520fdc18
DTITLE=Dinah Washington - Sings The Blues
DYEAR=1900
DGENRE=Blues
TTITLE0=No Love, No Nothing
TTITLE1=Shoo Shoo Baby
TTITLE2=Stairway To The Stars
TTITLE3=I Want To Be Loved
TTITLE4=Postman Blues
TTITLE5=Since I Fell For You
TTITLE6=West Side Baby
TTITLE7=You Can Depend On Me
TTITLE8=Embraceable You
TTITLE9=I Can't Get Started (With You)
TTITLE10=That's When A Woman Loves A Heel
TTITLE11=Oo Wee Walkie Talkie
TTITLE12=I Love You, Yes I Do
TTITLE13=What Can I Say After I Say I'm Sorry?
TTITLE14=Am I Asking Too Much?
TTITLE15=I Want To Cry
TTITLE16=I Sold My Heart To The Junk Man
TTITLE17=It's Funny
TTITLE18=Why Can't You Behave?
TTITLE19=It's Too Soon To Know
TTITLE20=Blues For A Day
TTITLE21=All Or Nothing
TTITLE22=Wise Woman Blues
TTITLE23=Rich Man's Blues
EXTD=
EXTT0=
EXTT1=
EXTT2=
EXTT3=
EXTT4=
EXTT5=
EXTT6=
EXTT7=
EXTT8=
EXTT9=
EXTT10=
EXTT11=
EXTT12=
EXTT13=
EXTT14=
EXTT15=
EXTT16=
EXTT17=
EXTT18=
EXTT19=
EXTT20=
EXTT21=
EXTT22=
EXTT23=
PLAYORDER=
